<svg xmlns="http://www.w3.org/2000/svg" viewBox="0 0 959 593" fill="none">
  <style>
    .state { fill: #334155; stroke: #475569; stroke-width: 1; }
    .state:hover { fill: #3b4d63; }
  </style>
  
  <!-- Continental US States -->
  <g id="continental">
    <!-- Washington -->
    <path class="state" d="M78.5,62.5l-1-7l3-9l10-4l5,2l4-3l14,4l6-2l5,4l-1,6l5,3l-2,5l3,2l-1,5l-7,2l-4,-2l-5,2l-3,-3l-5,1l-2,-3l-7,4l-2,-3l-7,-1l-3,3l-8,-4z"/>
    <!-- Oregon -->
    <path class="state" d="M78.5,62.5l-8,4l-3,8l1,6l-5,9l-3,1l-1,7l-4,4l2,8l-10,3l-4,-1l-2,4l-28,-4l3,-11l-3,-5l2,-6l7,-10l2,-9l5,-7l4,2l3,-4l15,3l6,-3l6,2l5,-3l5,2l3,-4z"/>
    <!-- California -->
    <path class="state" d="M78.5,135l-15,3l-9,9l-5,15l2,10l-4,12l3,8l-2,8l5,12l8,10l5,15l-2,8l3,5l-1,8l10,15l-30,-5l-2,-8l-5,-4l-15,-30l-8,-25l-1,-30l5,-15l8,-20l12,-12l10,-5l8,3l5,-8l15,2z"/>
    <!-- Nevada -->
    <path class="state" d="M78.5,135l15,-2l20,40l15,35l-45,8l-25,-60l8,-15l12,-6z"/>
    <!-- Idaho -->
    <path class="state" d="M130,40l8,20l-5,15l3,8l-2,10l5,8l-3,5l2,8l-15,10l-5,-8l-25,-3l-10,7l-8,-45l28,4l2,-4l4,1l10,-3l-2,-8l4,-4l1,-7l3,-1l5,-9z"/>
    <!-- Montana -->
    <path class="state" d="M130,40l85,8l8,45l-8,5l-5,-2l-8,5l-5,-3l-10,2l-5,5l-10,-2l-5,3l-8,-3l-3,5l-8,-5l-5,3l-8,-8l2,-10l-3,-8l5,-15l-8,-20z"/>
    <!-- Wyoming -->
    <path class="state" d="M215,93l5,55l-90,-8l5,-50l80,3z"/>
    <!-- Utah -->
    <path class="state" d="M130,148l-15,60l-8,-2l-25,-60l15,-35l20,35l13,2z"/>
    <!-- Colorado -->
    <path class="state" d="M215,148l5,60l-90,-8l-15,-50l90,3l10,-5z"/>
    <!-- Arizona -->
    <path class="state" d="M115,208l-8,75l50,10l30,-85l-45,8l-27,-8z"/>
    <!-- New Mexico -->
    <path class="state" d="M187,208l-30,85l75,-5l5,-80l-50,0z"/>
    <!-- Texas -->
    <path class="state" d="M232,288l-5,80l20,15l10,25l15,10l25,-5l15,15l10,-5l15,10l5,-10l20,5l10,-15l-5,-15l10,-20l-10,-25l5,-15l-20,-5l-15,10l-25,-15l-15,5l-10,-15l-25,-5l-10,-20l-20,0z"/>
    <!-- Oklahoma -->
    <path class="state" d="M287,208l65,5l5,35l-10,10l0,30l-75,-5l-5,-35l10,-5l10,-35z"/>
    <!-- Kansas -->
    <path class="state" d="M287,208l-10,35l-10,5l-55,-5l5,-60l70,5l0,20z"/>
    <!-- Nebraska -->
    <path class="state" d="M220,148l67,5l8,25l-75,10l-15,-35l15,-5z"/>
    <!-- South Dakota -->
    <path class="state" d="M220,93l75,5l5,50l-75,-5l-5,-50z"/>
    <!-- North Dakota -->
    <path class="state" d="M220,48l75,0l5,45l-75,-5l-5,-40z"/>
    <!-- Minnesota -->
    <path class="state" d="M375,48l-5,70l-75,-10l0,-60l80,0z"/>
    <!-- Iowa -->
    <path class="state" d="M370,118l5,50l-80,-5l0,-50l75,5z"/>
    <!-- Missouri -->
    <path class="state" d="M375,168l5,60l-85,-10l0,-55l80,5z"/>
    <!-- Arkansas -->
    <path class="state" d="M380,228l0,55l-75,-5l-5,-50l80,0z"/>
    <!-- Louisiana -->
    <path class="state" d="M380,283l5,45l-50,10l-15,-30l5,-20l55,-5z"/>
    <!-- Wisconsin -->
    <path class="state" d="M440,60l-5,65l-60,-5l0,-50l40,-15l25,5z"/>
    <!-- Illinois -->
    <path class="state" d="M435,125l5,75l-65,-5l0,-65l60,-5z"/>
    <!-- Michigan -->
    <path class="state" d="M475,45l35,30l-20,45l-50,-5l5,-60l30,-10z"/>
    <!-- Indiana -->
    <path class="state" d="M490,120l0,65l-55,-5l0,-55l55,-5z"/>
    <!-- Ohio -->
    <path class="state" d="M545,110l5,65l-60,-5l0,-55l55,-5z"/>
    <!-- Kentucky -->
    <path class="state" d="M550,175l-5,45l-70,-5l5,-35l70,-5z"/>
    <!-- Tennessee -->
    <path class="state" d="M545,220l5,35l-95,-5l0,-30l90,0z"/>
    <!-- Mississippi -->
    <path class="state" d="M455,255l0,65l-75,-5l5,-55l70,-5z"/>
    <!-- Alabama -->
    <path class="state" d="M510,255l0,70l-55,-5l0,-60l55,-5z"/>
    <!-- Florida -->
    <path class="state" d="M565,310l15,60l25,20l5,-40l-20,-35l-25,-5z"/>
    <!-- Georgia -->
    <path class="state" d="M565,255l0,55l-55,-5l0,-45l55,-5z"/>
    <!-- South Carolina -->
    <path class="state" d="M595,235l-10,35l-20,-10l5,-20l25,-5z"/>
    <!-- North Carolina -->
    <path class="state" d="M640,210l-20,30l-25,-5l10,-20l35,-5z"/>
    <!-- Virginia -->
    <path class="state" d="M640,175l-5,35l-45,-5l5,-25l45,-5z"/>
    <!-- West Virginia -->
    <path class="state" d="M595,160l10,25l-30,-5l5,-15l15,-5z"/>
    <!-- Pennsylvania -->
    <path class="state" d="M630,115l5,40l-60,-5l0,-30l55,-5z"/>
    <!-- New York -->
    <path class="state" d="M670,70l-10,55l-55,-5l10,-45l55,-5z"/>
    <!-- Vermont -->
    <path class="state" d="M680,50l-10,25l-20,-5l5,-15l25,-5z"/>
    <!-- New Hampshire -->
    <path class="state" d="M695,45l-5,30l-15,-5l5,-20l15,-5z"/>
    <!-- Maine -->
    <path class="state" d="M720,20l-10,50l-20,-10l10,-35l20,-5z"/>
    <!-- Massachusetts -->
    <path class="state" d="M710,85l-15,10l-20,-5l10,-10l25,5z"/>
    <!-- Rhode Island -->
    <path class="state" d="M705,95l-5,10l-10,-5l5,-8l10,3z"/>
    <!-- Connecticut -->
    <path class="state" d="M690,100l-10,15l-15,-5l5,-12l20,2z"/>
    <!-- New Jersey -->
    <path class="state" d="M665,115l-5,30l-15,-5l5,-22l15,-3z"/>
    <!-- Delaware -->
    <path class="state" d="M655,145l-5,15l-10,-3l3,-10l12,-2z"/>
    <!-- Maryland -->
    <path class="state" d="M640,155l-5,20l-25,-5l5,-12l25,-3z"/>
  </g>
  
  <!-- Alaska (inset, bottom left) -->
  <g id="alaska" transform="translate(65, 430) scale(0.35)">
    <path class="state" d="M0,100l50,-50l80,0l30,30l-20,50l-60,20l-40,-10l-40,-40z"/>
  </g>
  
  <!-- Hawaii (inset, bottom left) -->
  <g id="hawaii" transform="translate(180, 480) scale(0.5)">
    <path class="state" d="M0,30l15,-15l20,5l15,15l-10,15l-25,5l-15,-25z"/>
    <path class="state" d="M50,20l10,-10l15,10l-5,15l-15,0l-5,-15z"/>
    <path class="state" d="M80,5l15,5l5,15l-15,5l-10,-15l5,-10z"/>
  </g>
  
  <!-- Territories label area (bottom) -->
  <g id="territories-label">
    <text x="480" y="560" fill="#64748b" font-family="sans-serif" font-size="12" text-anchor="middle">US Territories</text>
  </g>
</svg>
